<?xml version="1.0" encoding="UTF-8"?>
<svg xmlns="http://www.w3.org/2000/svg" viewBox="0 0 701 734">
<g><path style="opacity:0.976" fill="#013258" d="M 494.5,18.5 C 502.717,18.8648 509.217,22.5314 514,29.5C 538.807,73.0201 556.474,119.353 567,168.5C 576.014,216.802 578.681,265.469 575,314.5C 573.92,346.221 569.92,377.554 563,408.5C 557.648,431.241 551.981,453.908 546,476.5C 544.255,489.843 549.755,498.676 562.5,503C 586.056,502.298 607.723,508.298 627.5,521C 639.163,529.243 649.663,538.743 659,549.5C 670.305,568.112 679.471,587.779 686.5,608.5C 686.167,609.5 685.5,610.167 684.5,610.5C 670.838,602.915 656.171,598.415 640.5,597C 620.366,594.801 600.7,596.801 581.5,603C 562.385,609.891 544.385,618.891 527.5,630C 504.016,646.913 479.683,662.58 454.5,677C 448.258,682.571 442.758,688.738 438,695.5C 426.809,705.695 414.309,713.862 400.5,720C 393.99,721.085 387.99,719.752 382.5,716C 375.206,710.374 368.206,704.374 361.5,698C 359.754,697.529 358.087,696.862 356.5,696C 348.5,695.333 340.5,695.333 332.5,696C 284.473,703.128 238.14,697.128 193.5,678C 160.949,663.241 131.282,644.241 104.5,621C 68.1795,584.552 43.0128,541.385 29,491.5C 1.96949,387.963 22.6362,295.296 91,213.5C 154.145,144.783 231.978,117.616 324.5,132C 339.501,136 354.168,141 368.5,147C 380.1,149.279 388.933,145.445 395,135.5C 410.688,108.115 428.354,82.1148 448,57.5C 461.935,42.378 477.435,29.378 494.5,18.5 Z M 301.5,275.5 C 304.027,276.517 306.527,276.517 309,275.5C 312.828,276.913 316.661,278.247 320.5,279.5C 324.767,286.268 329.934,292.268 336,297.5C 337.076,299.067 337.909,300.734 338.5,302.5C 336.415,312.83 334.249,323.163 332,333.5C 331.365,334.966 330.531,336.3 329.5,337.5C 321.985,340.139 314.318,342.639 306.5,345C 303.628,347.537 301.128,350.37 299,353.5C 298.028,379.494 296.862,405.494 295.5,431.5C 296.831,442.941 297.831,454.441 298.5,466C 296.16,477.593 290.994,479.093 283,470.5C 278.513,462.197 273.513,454.197 268,446.5C 244.437,399.662 244.77,352.995 269,306.5C 275.426,295.84 283.592,286.674 293.5,279C 296.237,277.924 298.904,276.757 301.5,275.5 Z"/></g>
<g><path style="opacity:1" fill="#42bfcb" d="M 539.5,462.5 C 538.833,428.833 538.167,395.167 537.5,361.5C 534.294,343.473 523.46,334.806 505,335.5C 490.846,336.357 476.68,336.69 462.5,336.5C 475.763,235.398 489.763,134.398 504.5,33.5C 524.175,64.1946 539.009,97.1946 549,132.5C 558.501,166.169 563.834,200.502 565,235.5C 569.578,296.591 564.912,356.924 551,416.5C 547.486,431.926 543.652,447.26 539.5,462.5 Z"/></g>
<g><path style="opacity:1" fill="#42bfcb" d="M 487.5,30.5 C 488.124,30.9169 488.457,31.5836 488.5,32.5C 474.702,133.18 460.869,233.846 447,334.5C 415.724,336.488 384.224,337.155 352.5,336.5C 353.522,326.723 355.189,317.056 357.5,307.5C 379.636,306.7 393.969,295.7 400.5,274.5C 431.104,266.67 443.604,247.003 438,215.5C 435.176,199.031 428.843,184.031 419,170.5C 412.167,161.67 404.667,153.503 396.5,146C 418.071,100.596 448.404,62.096 487.5,30.5 Z"/></g>
<g><path style="opacity:1" fill="#53cde2" d="M 340.5,260.5 C 340.173,254.207 338.673,248.207 336,242.5C 325.806,221.307 309.973,205.807 288.5,196C 273.373,189.429 257.54,186.596 241,187.5C 223.058,187.488 205.558,190.321 188.5,196C 175.311,201.506 162.311,207.506 149.5,214C 125.521,230.641 103.354,249.475 83,270.5C 58.9242,303.653 40.9242,339.986 29,379.5C 28.5026,376.854 28.3359,374.187 28.5,371.5C 37.2271,296.054 70.5604,234.221 128.5,186C 159.206,162.411 193.539,146.078 231.5,137C 285.391,125.582 335.391,134.582 381.5,164C 399.949,178.129 411.449,196.629 416,219.5C 417.35,227.656 416.017,235.323 412,242.5C 407.611,248.288 402.111,249.788 395.5,247C 390.373,238.104 382.706,233.937 372.5,234.5C 372.18,239.531 373.347,244.197 376,248.5C 377.429,256.119 377.762,263.785 377,271.5C 371.029,282.738 362.196,285.905 350.5,281C 343.681,275.942 340.348,269.108 340.5,260.5 Z"/></g>
<g><path style="opacity:1" fill="#01669e" d="M 292.5,527.5 C 286.37,527.635 280.37,526.801 274.5,525C 216.569,492.415 190.069,442.582 195,375.5C 195.918,369.152 196.918,362.819 198,356.5C 201.744,351.122 200.911,350.288 195.5,354C 174.397,373.357 160.897,397.19 155,425.5C 154.165,432.859 153.332,440.192 152.5,447.5C 142.182,383.622 161.182,330.122 209.5,287C 231.635,268.955 256.968,259.622 285.5,259C 276.416,264.748 268.583,271.915 262,280.5C 252.507,293.49 245.174,307.49 240,322.5C 232.93,353.222 231.597,384.222 236,415.5C 243.722,450.984 262.389,478.984 292,499.5C 292.5,508.827 292.666,518.161 292.5,527.5 Z"/></g>
<g><path style="opacity:1" fill="#f2f4f2" d="M 320.5,279.5 C 316.661,278.247 312.828,276.913 309,275.5C 306.527,276.517 304.027,276.517 301.5,275.5C 302.6,274.442 303.934,273.608 305.5,273C 310.229,272.004 314.729,272.504 319,274.5C 319.608,276.154 320.108,277.821 320.5,279.5 Z"/></g>
<g><path style="opacity:1" fill="#071631" d="M 514.5,362.5 C 512.887,360.73 510.887,359.564 508.5,359C 445.498,359.105 382.498,359.605 319.5,360.5C 322.977,359.677 326.644,359.177 330.5,359C 390.167,358.239 449.834,357.905 509.5,358C 512.309,358.312 513.976,359.812 514.5,362.5 Z"/></g>
<g><path style="opacity:1" fill="#051a37" d="M 315.5,364.5 C 315.928,420.81 315.928,477.144 315.5,533.5C 314.169,476.598 314.169,420.264 315.5,364.5 Z"/></g>
<g><path style="opacity:1" fill="#0c94c6" d="M 340.5,260.5 C 330.519,247.405 317.186,239.572 300.5,237C 266.237,232.732 234.904,240.399 206.5,260C 164.687,291.214 139.187,332.714 130,384.5C 119.708,441.831 134.542,491.331 174.5,533C 183.739,541.565 194.073,548.565 205.5,554C 212.52,557.182 219.853,558.182 227.5,557C 185.031,532.591 160.031,496.091 152.5,447.5C 153.332,440.192 154.165,432.859 155,425.5C 160.897,397.19 174.397,373.357 195.5,354C 200.911,350.288 201.744,351.122 198,356.5C 196.918,362.819 195.918,369.152 195,375.5C 190.069,442.582 216.569,492.415 274.5,525C 280.37,526.801 286.37,527.635 292.5,527.5C 293.037,542.111 299.704,552.611 312.5,559C 314.5,559.333 316.5,559.667 318.5,560C 319.126,560.75 319.626,561.584 320,562.5C 323.826,582.795 327.326,603.129 330.5,623.5C 261.972,630.818 200.972,612.985 147.5,570C 127.448,552.293 111.614,531.46 100,507.5C 106.978,545.788 123.312,579.455 149,608.5C 194.26,657.045 250.093,683.378 316.5,687.5C 216.727,691.443 136.893,653.777 77,574.5C 35.0734,513.043 18.9068,445.377 28.5,371.5C 28.3359,374.187 28.5026,376.854 29,379.5C 40.9242,339.986 58.9242,303.653 83,270.5C 103.354,249.475 125.521,230.641 149.5,214C 162.311,207.506 175.311,201.506 188.5,196C 205.558,190.321 223.058,187.488 241,187.5C 257.54,186.596 273.373,189.429 288.5,196C 309.973,205.807 325.806,221.307 336,242.5C 338.673,248.207 340.173,254.207 340.5,260.5 Z"/></g>
<g><path style="opacity:1" fill="#00669e" d="M 89.5,344.5 C 101.061,343.894 105.561,349.227 103,360.5C 100.201,369.616 94.0339,373.45 84.5,372C 81.7686,369.533 80.1019,366.533 79.5,363C 80.6198,355.591 83.9531,349.424 89.5,344.5 Z"/></g>
<g><path style="opacity:1" fill="#18687f" d="M 537.5,361.5 C 538.167,395.167 538.833,428.833 539.5,462.5C 539.719,463.675 539.386,464.675 538.5,465.5C 537.5,430.84 537.167,396.173 537.5,361.5 Z"/></g>
<g><path style="opacity:1" fill="#f8f7f5" d="M 514.5,362.5 C 514.667,418.834 514.5,475.168 514,531.5C 512.833,532.667 511.667,533.833 510.5,535C 502.422,535.198 494.422,535.698 486.5,536.5C 451.167,536.5 415.833,536.5 380.5,536.5C 359.831,536.667 339.164,536.5 318.5,536C 317.627,534.955 316.627,534.122 315.5,533.5C 315.928,477.144 315.928,420.81 315.5,364.5C 316.5,362.833 317.833,361.5 319.5,360.5C 382.498,359.605 445.498,359.105 508.5,359C 510.887,359.564 512.887,360.73 514.5,362.5 Z"/></g>
<g><path style="opacity:1" fill="#05ae8e" d="M 468.5,391.5 C 486.392,393.876 491.559,403.21 484,419.5C 463.667,442.5 443.333,465.5 423,488.5C 418.425,493.746 413.258,498.246 407.5,502C 403.29,503.02 399.623,502.02 396.5,499C 383.696,485.195 370.529,471.695 357,458.5C 351.661,452.823 348.161,446.156 346.5,438.5C 346.622,436.209 347.455,434.209 349,432.5C 352.222,429.612 355.722,427.112 359.5,425C 361.5,424.333 363.5,424.333 365.5,425C 368.629,426.399 371.629,428.065 374.5,430C 384.401,440.069 394.401,449.902 404.5,459.5C 422.156,440.342 439.656,421.009 457,401.5C 460.435,397.555 464.268,394.222 468.5,391.5 Z"/></g>
<g><path style="opacity:1" fill="#159fcc" d="M 654.5,560.5 C 654.44,561.043 654.107,561.376 653.5,561.5C 630.92,553.251 607.586,550.084 583.5,552C 560.622,554.963 538.955,561.463 518.5,571.5C 520.58,562.672 524.747,555.005 531,548.5C 536.524,535.455 542.357,522.455 548.5,509.5C 587.477,506.325 619.977,519.325 646,548.5C 649.089,552.354 651.922,556.354 654.5,560.5 Z"/></g>
<g><path style="opacity:1" fill="#00659d" d="M 330.5,623.5 C 333.547,637.82 336.713,652.153 340,666.5C 341.833,672 343.667,677.5 345.5,683C 345.095,683.945 344.428,684.612 343.5,685C 334.527,686.165 325.527,686.998 316.5,687.5C 250.093,683.378 194.26,657.045 149,608.5C 123.312,579.455 106.978,545.788 100,507.5C 111.614,531.46 127.448,552.293 147.5,570C 200.972,612.985 261.972,630.818 330.5,623.5 Z"/></g>
<g><path style="opacity:1" fill="#03112d" d="M 380.5,536.5 C 415.833,536.5 451.167,536.5 486.5,536.5C 431.003,537.888 375.337,538.388 319.5,538C 340.004,537.832 360.337,537.332 380.5,536.5 Z"/></g>
<g><path style="opacity:1" fill="#00669e" d="M 654.5,560.5 C 661.39,570.279 666.723,580.946 670.5,592.5C 670,592.833 669.5,593.167 669,593.5C 649.027,584.947 628.194,582.114 606.5,585C 585.761,588.272 566.761,595.939 549.5,608C 527.645,619.339 506.645,632.172 486.5,646.5C 485.417,645.635 485.251,644.635 486,643.5C 496.631,619.25 507.464,595.25 518.5,571.5C 538.955,561.463 560.622,554.963 583.5,552C 607.586,550.084 630.92,553.251 653.5,561.5C 654.107,561.376 654.44,561.043 654.5,560.5 Z"/></g>
<g><path style="opacity:1" fill="#2d9aaa" d="M 487.5,585.5 C 465.141,584.321 442.641,584.321 420,585.5C 419.667,584.833 419.333,584.167 419,583.5C 418.722,584.416 418.222,585.082 417.5,585.5C 418.434,576.495 419.434,567.495 420.5,558.5C 446.509,558.167 472.509,558.5 498.5,559.5C 495.339,568.477 491.672,577.144 487.5,585.5 Z"/></g>
<g><path style="opacity:1" fill="#2e9eac" d="M 400.5,584.5 C 382.833,585.833 365.167,585.833 347.5,584.5C 345.843,576.347 344.843,568.014 344.5,559.5C 364.5,559.5 384.5,559.5 404.5,559.5C 403.4,568 402.067,576.333 400.5,584.5 Z"/></g>
<g><path style="opacity:1" fill="#41beca" d="M 347.5,584.5 C 365.167,585.833 382.833,585.833 400.5,584.5C 396.412,616.458 392.579,648.458 389,680.5C 388.1,688.973 386.6,697.306 384.5,705.5C 380.965,702.764 378.132,699.431 376,695.5C 370.823,684.816 366.49,673.816 363,662.5C 356.485,636.756 351.318,610.756 347.5,584.5 Z"/></g>
<g><path style="opacity:1" fill="#40bdc9" d="M 487.5,585.5 C 472.597,626.159 450.931,662.659 422.5,695C 416.392,700.718 409.392,704.885 401.5,707.5C 405.85,666.7 411.183,626.034 417.5,585.5C 418.222,585.082 418.722,584.416 419,583.5C 419.333,584.167 419.667,584.833 420,585.5C 442.641,584.321 465.141,584.321 487.5,585.5 Z"/></g>
</svg>
